PathFileType	4	(X/Y/Z)	..\data\2014031\dynamic\2014031_C4_02.trc
DataRate	CameraRate	NumFrames	NumMarkers	Units	OrigDataRate	OrigDataStartFrame	OrigNumFrames
100.000000	100.000000	4	52	mm	100.000000	148	170
Frame#	Time	L_IAS			L_IPS			R_IPS			R_IAS			L_FTC			L_FLE			L_FME			L_FAX			L_TTC			L_FAL			L_TAM			L_FCC			L_FM1			L_FM2			L_FM5			R_FTC			R_FLE			R_FME			R_FAX			R_TTC			R_FAL			R_TAM			R_FCC			R_FM1			R_FM2			R_FM5			CV7			TV10			SXS			SJN			L_SIA			L_SRS			L_SAA			L_SAE			L_HLE			L_HME			L_UOA			L_RSP			L_UHE			L_HM2			L_HM5			R_SIA			R_SRS			R_SAA			R_SAE			R_HLE			R_HME			R_UOA			R_RSP			R_UHE			R_HM2			R_HM5			
		X1	Y1	Z1	X2	Y2	Z2	X3	Y3	Z3	X4	Y4	Z4	X5	Y5	Z5	X6	Y6	Z6	X7	Y7	Z7	X8	Y8	Z8	X9	Y9	Z9	X10	Y10	Z10	X11	Y11	Z11	X12	Y12	Z12	X13	Y13	Z13	X14	Y14	Z14	X15	Y15	Z15	X16	Y16	Z16	X17	Y17	Z17	X18	Y18	Z18	X19	Y19	Z19	X20	Y20	Z20	X21	Y21	Z21	X22	Y22	Z22	X23	Y23	Z23	X24	Y24	Z24	X25	Y25	Z25	X26	Y26	Z26	X27	Y27	Z27	X28	Y28	Z28	X29	Y29	Z29	X30	Y30	Z30	X31	Y31	Z31	X32	Y32	Z32	X33	Y33	Z33	X34	Y34	Z34	X35	Y35	Z35	X36	Y36	Z36	X37	Y37	Z37	X38	Y38	Z38	X39	Y39	Z39	X40	Y40	Z40	X41	Y41	Z41	X42	Y42	Z42	X43	Y43	Z43	X44	Y44	Z44	X45	Y45	Z45	X46	Y46	Z46	X47	Y47	Z47	X48	Y48	Z48	X49	Y49	Z49	X50	Y50	Z50	X51	Y51	Z51	X52	Y52	Z52	

149	1.48	1500.52392578125	954.6318969726565	-353.6343383789063	1305.224609375	986.9561767578127	-294.3476867675782	1302.500610351563	979.0156250000002	-189.6916961669922	1492.124389648438	958.566833496094	-127.8958053588867	1394.3798828125	879.1181640625002	-426.930633544922	1362.043212890625	464.5842895507814	-369.3143310546876	1351.867553710938	466.2926025390626	-239.2409667968751	1342.926025390625	405.1713256835939	-367.1318664550782	1400.03857421875	403.084197998047	-304.0864562988282	1268.2265625	67.4667434692383	-314.3640441894532	1292.288208007813	87.61738586425783	-224.7895202636719	1220.686889648438	23.27427482604981	-269.9383239746094	1414.229125976563	19.81571006774903	-228.4291992187501	1423.937255859375	34.36096572875977	-286.6996765136719	1379.4091796875	22.50801849365235	-341.1340637207032	1422.480834960938	868.4725341796877	-56.83341217041017	1583.959594726563	499.4660034179689	-97.10191345214847	1601.763916015625	490.1614074707032	-222.9653930664063	1575.35400390625	442.495086669922	-94.87328338623048	1644.312866210938	437.8639221191407	-142.656982421875	1500.767333984375	106.7718276977539	-129.149642944336	1549.229614257813	120.9946899414063	-207.3695526123047	1469.25830078125	57.04037094116212	-188.3744049072266	1656.2607421875	43.40617752075196	-165.5916748046875	1647.8427734375	58.83150863647462	-111.1770095825196	1595.587158203125	38.90402221679688	-76.03002929687501	1379.657348632813	1505.477661132813	-232.7283935546876	1293.988891601563	1229.425048828125	-246.4369659423829	1515.714111328125	1219.401245117188	-243.4552307128907	1491.45849609375	1413.22705078125	-239.8696441650391	1296.208129882813	1261.834838867188	-358.8533935546876	1342.53369140625	1413.73974609375	-374.9164733886719	1392.591796875	1406.868530273438	-435.0089721679689	1440.557983398438	1408.466430664063	-431.8839111328126	1462.523193359375	1076.249389648438	-515.2620239257814	1424.642333984375	1044.428344726563	-440.7779846191407	1432.826049804688	1034.406860351563	-492.7737121582032	1665.160766601563	922.8690185546877	-415.2617187500001	1644.053100585938	893.4739990234377	-488.7015380859376	1736.900146484375	869.282409667969	-410.9412536621095	1679.54052734375	825.3343505859377	-481.1643981933595	1285.987670898438	1257.661254882813	-148.0563507080078	1337.103149414063	1413.685424804688	-115.4841613769532	1391.15869140625	1409.108520507813	-52.71076583862306	1433.8427734375	1397.02880859375	-36.92636871337891	1349.712768554688	1068.15625	22.29777908325196	1321.9716796875	1057.786010742188	-59.14634704589845	1310.0966796875	1046.916259765625	-18.24774169921875	1453.76171875	831.9416503906252	-3.877144098281861	1400.115600585938	822.461853027344	54.93737030029298	1479.495849609375	741.0429077148439	0.3192690014839173	1394.010620117188	737.1262207031251	55.50876235961915	
150	1.49	1511.000366210938	952.9763793945315	-354.0025634765626	1315.975952148438	985.771911621094	-293.4987487792969	1313.971801757813	977.620788574219	-188.9209747314453	1503.980712890625	956.907897949219	-128.1214752197266	1403.82568359375	878.0144653320315	-426.7239379882814	1366.594848632813	464.1255493164064	-369.2022399902344	1357.029907226563	465.9407348632814	-239.1054077148438	1346.724731445313	404.8958740234376	-366.9024047851563	1404.0869140625	402.1370544433595	-304.1534729003907	1268.578491210938	67.83460235595705	-313.6943359375001	1293.033325195313	88.00711822509767	-224.3737487792969	1220.8779296875	23.97577285766602	-269.2185363769532	1414.368896484375	19.72564888000489	-228.359359741211	1424.00439453125	34.2119483947754	-286.6062011718751	1379.269287109375	22.51742172241211	-340.8912048339844	1434.472900390625	866.8156738281252	-56.8708839416504	1596.038818359375	497.7194213867189	-96.95627593994143	1613.19482421875	488.3146972656251	-223.0786437988282	1590.098510742188	439.9752807617189	-94.78663635253908	1658.745483398438	438.4271850585939	-142.7567291259766	1536.951416015625	100.3720474243164	-128.5127868652344	1584.41748046875	117.4000625610352	-206.7702941894532	1509.053833007813	48.3132781982422	-187.6587677001953	1696.365600585938	46.86229324340821	-164.9003601074219	1687.003784179688	61.88565826416017	-110.589599609375	1636.21484375	39.07090759277344	-75.31866455078126	1391.295776367188	1504.059204101563	-232.1909942626954	1305.367797851563	1228.038818359375	-245.9674682617188	1527.066162109375	1217.850830078125	-243.6803741455079	1502.994262695313	1411.609985351563	-239.6378936767579	1307.462036132813	1260.585693359375	-358.5951538085938	1353.7734375	1412.578369140625	-374.5872192382813	1403.80615234375	1405.77197265625	-434.7520141601564	1451.76416015625	1407.403930664063	-431.579071044922	1476.891845703125	1075.829223632813	-515.6323852539064	1439.535888671875	1043.246948242188	-441.0731201171876	1447.882446289063	1033.217895507813	-493.271942138672	1683.1767578125	928.7996826171877	-413.3902282714845	1663.2548828125	898.159851074219	-486.6473388671876	1756.610717773438	877.702087402344	-408.4064331054689	1700.78125	831.1699218750002	-478.2456054687501	1297.394897460938	1255.98779296875	-148.2890930175782	1348.66943359375	1412.011840820313	-115.3396987915039	1402.583129882813	1407.2392578125	-52.47202682495119	1445.306640625	1394.85986328125	-36.56516265869141	1357.550537109375	1067.0556640625	21.50735473632813	1330.496337890625	1057.030639648438	-60.14406204223634	1318.1015625	1046.388549804688	-19.38602638244629	1458.06982421875	829.2443847656252	-3.552061557769776	1403.674560546875	820.661804199219	54.81252670288087	1482.137817382813	737.9429321289064	0.9630078077316286	1396.112060546875	735.4547119140626	55.36735916137697	
151	1.5	1521.46875	951.3098144531252	-354.3852233886719	1326.798217773438	984.4807128906252	-292.5623474121094	1325.514404296875	976.1054687500002	-188.0693664550782	1515.942016601563	955.1130981445315	-128.3419952392578	1413.320922851563	876.911560058594	-426.4898986816407	1371.351440429688	463.686248779297	-369.0729064941407	1362.53173828125	465.583709716797	-238.9541625976563	1350.71923828125	404.6529846191407	-366.6474609375001	1408.367065429688	401.1914672851564	-304.2273254394532	1268.966430664063	68.3602752685547	-313.0322265625001	1293.859741210938	88.47518920898439	-223.9379119873047	1221.118041992188	24.83807945251466	-268.4433288574219	1414.498046875	19.65253829956055	-228.2668151855469	1424.063232421875	34.06791305541993	-286.4959411621094	1379.10205078125	22.54456901550293	-340.6177978515626	1446.41015625	864.9323730468752	-56.90894699096681	1607.544921875	495.5567321777345	-96.63712310791018	1624.1103515625	486.0728149414064	-223.0470733642579	1604.48681640625	437.2355346679689	-94.55434417724611	1672.588256835938	438.7052001953126	-142.7923736572266	1572.890991210938	95.02017211914064	-127.8958816528321	1618.974243164063	114.7987518310547	-206.2430114746094	1548.525756835938	40.88290405273438	-186.8997039794922	1735.414916992188	51.47935867309572	-164.8286743164063	1725.411376953125	66.02429199218751	-110.5753250122071	1676.37890625	40.34184646606446	-75.04109191894533	1402.994873046875	1502.548828125	-231.5912780761719	1316.79052734375	1226.57177734375	-245.3855743408204	1538.464599609375	1216.209594726563	-243.8365020751954	1514.59326171875	1409.892456054688	-239.3280792236329	1318.75244140625	1259.252075195313	-358.2450866699219	1365.102172851563	1411.331787109375	-374.2044677734376	1415.132202148438	1404.565185546875	-434.4332275390626	1463.0859375	1406.215576171875	-431.1898803710939	1491.158935546875	1075.304931640625	-515.9129028320314	1454.26953125	1041.989135742188	-441.3210754394532	1462.818481445313	1031.981201171875	-493.7147216796876	1700.697509765625	934.4708251953127	-411.5147094726564	1681.9677734375	902.6604003906252	-484.577606201172	1775.74267578125	885.9276123046877	-405.9521484375001	1721.476806640625	836.8692626953127	-475.3423461914064	1308.883178710938	1254.245239257813	-148.3739776611328	1360.30908203125	1410.253295898438	-115.1065139770508	1414.101196289063	1405.233642578125	-52.16011428833009	1456.875122070313	1392.59033203125	-36.12822723388673	1365.628051757813	1065.886352539063	20.7710075378418	1339.24169921875	1056.188354492188	-61.08115386962892	1326.350952148438	1045.783813476563	-20.454345703125	1462.649780273438	826.5582275390627	-3.304997205734254	1407.579711914063	818.8848266601565	54.67139053344728	1485.031005859375	734.8714599609376	1.469707489013672	1398.576293945313	733.8358154296876	55.20409393310548	
152	1.51	1531.934814453125	949.6398925781252	-354.7898254394532	1337.70556640625	983.0940551757815	-291.5405883789063	1337.134033203125	974.4837036132815	-187.1380310058594	1528.015258789063	953.2110595703127	-128.5668182373047	1422.885498046875	875.8193969726565	-426.2242736816407	1376.345703125	463.2686462402345	-368.9317626953126	1368.388061523438	465.2253723144532	-238.7948913574219	1354.942626953125	404.447235107422	-366.3782348632813	1412.902465820313	400.2522888183595	-304.3083190917969	1269.401733398438	69.06526947021486	-312.4111938476563	1294.764770507813	89.03723907470705	-223.503402709961	1221.404418945313	25.88313674926759	-267.6513061523438	1414.620239257813	19.60794448852539	-228.1646881103516	1424.121948242188	33.93846893310548	-286.3788757324219	1378.917602539063	22.59588623046875	-340.3276672363282	1458.330444335938	862.8637695312502	-56.94020462036134	1618.60498046875	493.0526123046876	-96.16421508789065	1634.590087890625	483.5020446777345	-222.8884887695313	1618.581787109375	434.348846435547	-94.19505310058595	1685.91845703125	438.7318420410157	-142.7962799072266	1608.22314453125	90.70931243896486	-127.3053054809571	1652.567993164063	113.1401443481446	-205.802719116211	1587.222045898438	34.75810241699219	-186.1040802001953	1773.034790039063	57.09332656860353	-165.4413299560547	1762.715454101563	71.08559417724611	-111.2043914794922	1715.707763671875	42.58226394653321	-75.26065063476564	1414.752075195313	1500.962890625	-230.9234619140626	1328.26220703125	1225.04150390625	-244.6951751708985	1549.91552734375	1214.498779296875	-243.9224700927735	1526.255981445313	1408.095825195313	-238.9361572265626	1330.081909179688	1257.855712890625	-357.8090209960938	1376.519287109375	1410.0185546875	-373.7616882324219	1426.568969726563	1403.271484375	-434.0469970703126	1474.5224609375	1404.925170898438	-430.7120971679689	1505.323486328125	1074.689086914063	-516.0999145507814	1468.833618164063	1040.66796875	-441.5223083496095	1477.628540039063	1030.707397460938	-494.0982360839845	1717.722534179688	939.8394775390627	-409.6481018066407	1700.177490234375	906.932556152344	-482.500946044922	1794.28076171875	893.8887939453127	-403.5883789062501	1741.603515625	842.379821777344	-472.4692687988282	1320.45751953125	1252.453125	-148.2993621826172	1372.02783203125	1408.4287109375	-114.7776794433594	1425.723388671875	1403.112060546875	-51.76937103271486	1468.548828125	1390.256225585938	-35.61066436767579	1373.955810546875	1064.660034179688	20.09990882873536	1348.211059570313	1055.273681640625	-61.94824981689455	1334.853515625	1045.11328125	-21.44083976745606	1467.526489257813	823.901794433594	-3.123045206069947	1411.857055664063	817.136901855469	54.52268218994142	1488.208129882813	731.8442382812501	1.844608187675477	1401.428100585938	732.2747192382814	55.02250289916994	
